<?xml version="1.0" encoding="UTF-8"?>
<svg xmlns="http://www.w3.org/2000/svg" id="a" viewBox="0 0 175.5 38">
  <path d="M13.86,22.87l1.14-1.27-3.15-5.5,2.82-1.59.31.54,6.11-3.44-.31-.54,2.37-1.34,1.11,1.98,1.12-1.27-1.62-2.89-3.76,2.12-.49-.88c-.11-.19-.36-.26-.55-.15l-1.14.64-.42-.74c-.06-.1-.18-.13-.28-.08l-2.79,1.57c-.1.06-.13.18-.08.28l.42.74-1.13.64c-.19.11-.26.36-.15.55l.49.88-4.21,2.37,4.19,7.37ZM16.31,9.56c.34,0,.61.27.61.61s-.27.61-.61.61-.61-.27-.61-.61.27-.61.61-.61Z" style="fill:#e11e19; fill-rule:evenodd;"/>
  <path d="M28.16,15.32l-1.14,1.22,1.07,1.97c1.05,1.86.39,4.23-1.48,5.28h0l-7.88,4.42-.84-1.51-1.2,1.27,1.39,2.45,9.32-5.25h0c2.63-1.48,3.56-4.83,2.08-7.45l-1.32-2.41Z" style="fill:#e11e19; fill-rule:evenodd;"/>
  <path d="M13.33,26.18l-2.49-2.55-1.35,1.46,4.07,4.39s1.8-2.23,3.57-4.4l-1.25-2.25c-1.39,1.78-2.56,3.35-2.56,3.35Z" style="fill:#e11e19;"/>
  <path d="M25.86,12.36c-.27.18-.6.43-.97.74l1.12,2.18c.24-.25.45-.47.6-.62,3.34-3.36,6.88.37,4.42,3.9.1.09.24.32.34.42,3.13-4.34-.8-9.63-5.52-6.62Z" style="fill:#e11e19;"/>
  <path d="M23.67,16.14c-.34.62-.65,1.2-.92,1.74-.27.54-.51,1.07-.72,1.6-.21.53-.38,1.06-.53,1.61s-.27,1.13-.36,1.76h-1.77c.1-.6.23-1.17.4-1.72.16-.55.35-1.09.57-1.61.22-.52.46-1.03.72-1.52.26-.49.54-.97.83-1.45h-3.57v-1.38h5.34v.97Z" style="fill:#e1211c;"/>
  <path d="M57.15,28.3c-1.5.79-3.37,1.19-5.61,1.19-2.89,0-5.2-.93-6.94-2.79s-2.61-4.3-2.61-7.32c0-3.25.98-5.87,2.93-7.87s4.43-3,7.43-3c1.93,0,3.52.28,4.79.84v2.53c-1.45-.81-3.06-1.22-4.81-1.22-2.33,0-4.22.78-5.67,2.34-1.45,1.56-2.17,3.64-2.17,6.24s.68,4.44,2.03,5.91c1.35,1.47,3.13,2.2,5.33,2.2,2.04,0,3.8-.45,5.3-1.36v2.31Z" style="fill:#222934;"/>
  <path d="M64.39,29.15h-2.38V8.85h2.38v20.31Z" style="fill:#222934;"/>
  <path d="M70.45,29.15V8.85h5.78c1.76,0,3.15.43,4.18,1.29,1.03.86,1.54,1.98,1.54,3.36,0,1.15-.31,2.15-.93,3s-1.48,1.45-2.58,1.81v.06c1.37.16,2.46.68,3.29,1.55.82.87,1.23,2.01,1.23,3.41,0,1.74-.62,3.14-1.87,4.22s-2.82,1.61-4.72,1.61h-5.92ZM72.83,11v6.56h2.44c1.3,0,2.33-.31,3.07-.94.75-.63,1.12-1.51,1.12-2.65,0-1.97-1.3-2.96-3.89-2.96h-2.73ZM72.83,19.69v7.31h3.23c1.4,0,2.48-.33,3.25-.99s1.15-1.57,1.15-2.72c0-2.4-1.63-3.6-4.9-3.6h-2.73Z" style="fill:#222934;"/>
  <path d="M93,28.43v-2.49c1.26.93,2.66,1.4,4.18,1.4,2.04,0,3.06-.68,3.06-2.04,0-.39-.09-.71-.26-.98-.17-.27-.41-.51-.71-.71-.3-.21-.65-.39-1.05-.56-.4-.17-.83-.34-1.3-.52-.64-.25-1.21-.51-1.69-.77-.49-.26-.89-.55-1.22-.88s-.57-.7-.74-1.11c-.17-.42-.25-.9-.25-1.46,0-.68.16-1.28.47-1.81.31-.52.73-.96,1.25-1.32.52-.35,1.11-.62,1.78-.8.67-.18,1.35-.27,2.06-.27,1.25,0,2.38.22,3.37.65v2.35c-1.07-.7-2.29-1.05-3.68-1.05-.43,0-.83.05-1.18.15-.35.1-.65.24-.9.42-.25.18-.44.39-.58.64-.14.25-.21.53-.21.83,0,.38.07.69.21.95s.34.48.6.68c.26.2.59.38.96.54.38.16.81.33,1.29.52.64.25,1.22.5,1.73.76.51.26.94.55,1.3.88.36.33.63.7.83,1.13s.29.93.29,1.52c0,.72-.16,1.34-.47,1.87-.32.53-.74.97-1.27,1.32-.53.35-1.14.61-1.83.78-.69.17-1.41.25-2.17.25-1.49,0-2.79-.29-3.88-.86Z" style="fill:#222934;"/>
  <path d="M118.56,22.29h-10.24c.04,1.61.47,2.86,1.3,3.74.83.88,1.97,1.32,3.43,1.32,1.63,0,3.13-.54,4.5-1.61v2.18c-1.27.93-2.96,1.39-5.06,1.39s-3.66-.66-4.83-1.98c-1.17-1.32-1.76-3.17-1.76-5.56,0-2.26.64-4.09,1.92-5.52,1.28-1.42,2.87-2.13,4.76-2.13s3.37.61,4.4,1.84c1.04,1.23,1.56,2.93,1.56,5.11v1.22ZM116.18,20.32c0-1.34-.33-2.38-.97-3.13-.64-.75-1.52-1.12-2.66-1.12s-2.02.39-2.79,1.18-1.24,1.81-1.42,3.07h7.83Z" style="fill:#222934;"/>
  <path d="M134.2,14.46l-5.78,14.5h-2.28l-5.49-14.5h2.55l3.68,10.54c.27.77.44,1.45.51,2.02h.06c.09-.73.25-1.38.45-1.97l3.85-10.59h2.45Z" style="fill:#222934;"/>
  <path d="M149.07,22.29h-10.24c.04,1.61.47,2.86,1.3,3.74.83.88,1.97,1.32,3.43,1.32,1.63,0,3.13-.54,4.5-1.61v2.18c-1.28.93-2.96,1.39-5.06,1.39s-3.66-.66-4.83-1.98c-1.17-1.32-1.76-3.17-1.76-5.56,0-2.26.64-4.09,1.92-5.52,1.28-1.42,2.87-2.13,4.76-2.13s3.37.61,4.4,1.84,1.56,2.93,1.56,5.11v1.22ZM146.69,20.32c0-1.34-.33-2.38-.97-3.13s-1.52-1.12-2.66-1.12-2.02.39-2.79,1.18c-.76.78-1.24,1.81-1.42,3.07h7.83Z" style="fill:#222934;"/>
  <path d="M165.34,28.96h-2.32v-8.27c0-3.08-1.12-4.62-3.37-4.62-1.16,0-2.12.44-2.88,1.31-.76.87-1.14,1.98-1.14,3.31v8.27h-2.32v-14.5h2.32v2.41h.06c1.09-1.83,2.68-2.75,4.76-2.75,1.59,0,2.8.51,3.64,1.54.84,1.02,1.26,2.5,1.26,4.44v8.86Z" style="fill:#222934;"/>
</svg>