<?xml version="1.0" encoding="UTF-8" standalone="no"?>
<svg
   width="256"
   height="256"
   viewBox="0 0 256 256"
   fill="none"
   version="1.1"
   id="svg8"
   sodipodi:docname="swapi-logo.svg"
   inkscape:version="1.4.2 (f4327f4, 2025-05-13)"
   xmlns:inkscape="http://www.inkscape.org/namespaces/inkscape"
   xmlns:sodipodi="http://sodipodi.sourceforge.net/DTD/sodipodi-0.dtd"
   xmlns="http://www.w3.org/2000/svg"
   xmlns:svg="http://www.w3.org/2000/svg"
   xmlns:rdf="http://www.w3.org/1999/02/22-rdf-syntax-ns#"
   xmlns:cc="http://creativecommons.org/ns#"
   xmlns:dc="http://purl.org/dc/elements/1.1/">
  <metadata
     id="metadata14">
    <rdf:RDF>
      <cc:Work
         rdf:about="">
        <dc:format>image/svg+xml</dc:format>
        <dc:type
           rdf:resource="http://purl.org/dc/dcmitype/StillImage" />
      </cc:Work>
    </rdf:RDF>
  </metadata>
  <defs
     id="defs12">
    <inkscape:path-effect
       effect="offset"
       id="path-effect2"
       is_visible="true"
       lpeversion="1.3"
       linejoin_type="miter"
       unit="mm"
       offset="0.2"
       miter_limit="4"
       attempt_force_join="false"
       update_on_knot_move="true" />
    <inkscape:path-effect
       effect="offset"
       id="path-effect1"
       is_visible="true"
       lpeversion="1.3"
       linejoin_type="miter"
       unit="mm"
       offset="0"
       miter_limit="4"
       attempt_force_join="false"
       update_on_knot_move="true" />
    <linearGradient
       id="linearGradient4526"
       inkscape:swatch="solid">
      <stop
         style="stop-color:#000000;stop-opacity:1;"
         offset="0"
         id="stop4524" />
    </linearGradient>
  </defs>
  <sodipodi:namedview
     pagecolor="#ffffff"
     bordercolor="#666666"
     borderopacity="1"
     objecttolerance="10"
     gridtolerance="10"
     guidetolerance="10"
     inkscape:pageopacity="0"
     inkscape:pageshadow="2"
     inkscape:window-width="1920"
     inkscape:window-height="1017"
     id="namedview10"
     showgrid="false"
     inkscape:zoom="2.6074563"
     inkscape:cx="101.05634"
     inkscape:cy="149.76282"
     inkscape:window-x="-8"
     inkscape:window-y="-8"
     inkscape:window-maximized="1"
     inkscape:current-layer="svg8"
     inkscape:showpageshadow="2"
     inkscape:pagecheckerboard="0"
     inkscape:deskcolor="#d1d1d1" />
  <path
     d="m 64.683594,42.283203 c -10.51329,0 -19.443983,2.592667 -26.31836,8.253906 -7.051323,5.80693 -10.4375,13.88883 -10.4375,23.638672 v 34.560549 c 0,11.13845 3.920706,20.00704 12.314453,25.52148 v 0.004 L 40.613281,134.5 c 0.0068,0.004 0.0074,0.005 0.01758,0.0117 l 0.105469,0.0664 0.08008,0.0508 26.90625,17.51562 0.02344,0.0176 0.03711,0.0234 c 1.484388,0.93464 2.631242,2.14417 3.433594,3.80078 0.802352,1.65661 1.255859,3.77631 1.255859,6.50976 v 28.92774 c 0,0.84264 -0.142586,1.50999 -0.423828,2.09179 -0.281242,0.58181 -0.706855,1.09342 -1.345703,1.59571 l -0.06836,0.0527 -0.0625,0.0547 c -1.191124,1.00846 -2.895761,1.68945 -5.632813,1.68945 -2.725733,0 -4.59822,-0.68097 -6.021484,-1.79883 -0.636204,-0.5002 -1.062945,-1.012 -1.34375,-1.59375 -0.280806,-0.58174 -0.421875,-1.24888 -0.421875,-2.09179 v -21.75977 c 0,-4.43309 0.245517,-8.58758 0.730468,-12.46679 l 0.541016,-4.32618 -4.263672,-0.91211 c -2.709764,-0.58097 -5.431995,-0.875 -8.164062,-0.875 -2.502808,0 -4.988482,0.31857 -7.451172,0.9375 v -0.006 l -0.953125,0.25586 c -0.01348,0.004 -0.05116,0.0141 -0.05664,0.0156 l -0.0059,0.002 c -0.004,0.001 -0.0028,5.2e-4 -0.0078,0.002 l -0.197265,0.0566 c -0.07709,0.0216 -0.155587,0.044 -0.232422,0.0664 l -0.119141,0.0332 v 0.002 c -2.410825,0.71536 -4.682917,1.80024 -6.43164,3.48242 -2.037519,1.95901 -3.125,4.50299 -3.125,7.33203 v 31.74414 c 0,8.60829 3.780651,15.69783 10.878906,20.97071 l 0.01172,0.008 0.04297,0.0293 0.01758,0.0137 c 7.003077,5.00241 15.907308,7.28711 26.316407,7.28711 10.669162,0 19.744654,-2.58269 26.779297,-8.21094 7.236331,-5.7889 10.744139,-13.88425 10.744139,-23.68164 V 156.0957 c 0,-11.35005 -4.526664,-20.28582 -13.714843,-26.02343 l -0.03906,-0.0254 -27.085938,-17.37499 -0.05664,-0.0391 -0.04297,-0.0234 -0.0078,-0.004 c 0,0 -0.002,0 -0.002,0 0,0 -0.002,-0.002 -0.002,-0.002 l -0.0059,-0.004 c -1.069755,-0.6552 -1.936439,-1.54467 -2.566406,-2.87695 -0.633585,-1.33994 -1.019531,-3.14607 -1.019532,-5.59375 V 74.175781 c 0,-1.094121 0.162445,-1.883635 0.40625,-2.46875 0.243806,-0.585115 0.564751,-0.977468 0.955079,-1.302734 l 0.01172,-0.0098 0.01563,-0.01367 c 1.191585,-1.008229 2.893827,-1.689453 5.63086,-1.689453 2.736928,0 4.440643,0.681818 5.626953,1.685547 l 0.08789,0.07617 0.08984,0.06836 c 0.45654,0.351149 0.802231,0.748809 1.056641,1.3125 0.25441,0.563692 0.416015,1.309105 0.416015,2.341797 v 21.759766 c 0,4.432873 -0.247439,8.587333 -0.732421,12.466793 l -0.541016,4.32618 4.263672,0.91211 c 2.70976,0.58096 5.431897,0.87499 8.164062,0.875 2.502996,0 4.989458,-0.31667 7.453125,-0.93555 v 0.004 l 0.236328,-0.0625 0.01953,-0.006 c 0.179465,-0.0466 0.35789,-0.0947 0.537109,-0.14454 l 0.160156,-0.043 c 0.0018,-4.9e-4 0.0363,-0.009 0.05273,-0.0137 0.02098,-0.006 0.032,-0.009 0.0332,-0.01 -9.88e-4,1.3e-4 -0.0036,-5.2e-4 -0.0059,0 2.608772,-0.71085 5.0928,-1.83027 6.970704,-3.63672 2.037704,-1.95919 3.123044,-4.50337 3.123044,-7.33203 V 70.591797 c 0,-1.445244 -0.10351,-2.846873 -0.31054,-4.203125 h 4.63086 c 1.56485,0 2.55003,0.179002 3.13281,0.361328 0.26565,0.08311 0.44956,0.170565 0.56836,0.238281 0,0 0.002,0.002 0.002,0.002 l 0.35352,0.314453 0.002,0.002 0.20117,0.179687 v 0.002 c 1.6e-4,2.24e-4 0.002,0.0017 0.002,0.002 0.0185,0.02522 0.19288,0.235409 0.34961,0.736328 0.18236,0.582842 0.36133,1.568234 0.36133,3.132813 V 192.44727 c 0,9.58908 3.02912,17.55931 9.63672,23.10156 l 0.0352,0.0293 0.0273,0.0215 c 0.002,0.002 0.005,0.004 0.008,0.006 l 0.002,0.002 c 6.57627,5.33654 15.35673,7.70899 25.76757,7.70899 8.7532,0 16.27526,-1.74687 22.01563,-5.75 5.74036,4.00313 13.26243,5.75 22.01562,5.75 10.8113,0 19.92911,-2.56755 26.83203,-8.25196 7.05144,-5.80712 10.43555,-13.89078 10.43555,-23.64062 V 52.416016 c 0,-2.192677 -0.65332,-4.64107 -2.69726,-6.445313 -1.93283,-1.704582 -4.34898,-2.150391 -6.41016,-2.150391 -6.15484,0 -12.2275,0.351782 -18.21875,1.056641 l -5.17773,0.609375 1.07812,5.099609 c 1.10119,5.192444 1.68945,11.844913 1.68945,20.00586 V 191.42383 c 0,1.02977 -0.16131,1.82129 -0.43945,2.46094 -0.27814,0.63964 -0.67293,1.13865 -1.19727,1.58203 -0.95251,0.78504 -2.54958,1.4414 -5.38281,1.4414 -2.48606,0 -4.15495,-0.56949 -5.37304,-1.44336 -0.41816,-0.41573 -0.75092,-0.90046 -0.99219,-1.53125 -0.24849,-0.64965 -0.39844,-1.46192 -0.39844,-2.50976 V 52.416016 c 0,-2.192677 -0.65332,-4.64107 -2.69727,-6.445313 -1.93282,-1.704582 -4.34897,-2.150391 -6.41015,-2.150391 -6.15484,0 -12.22754,0.351787 -18.21875,1.056641 l -5.18164,0.609375 1.08203,5.099609 c 1.10119,5.192444 1.68945,11.844913 1.68945,20.00586 V 192.44727 c 0,0.75321 -0.12154,1.32652 -0.3457,1.80664 -0.2206,0.47248 -0.54477,0.87123 -1.0293,1.26171 -1.24035,0.82658 -3.00934,1.39258 -5.64453,1.39258 -2.48606,0 -4.15712,-0.56969 -5.375,-1.44336 -0.41795,-0.41556 -0.74938,-0.90047 -0.99023,-1.53125 -0.24806,-0.64964 -0.39844,-1.4617 -0.39844,-2.50976 V 64.703125 c 0,-6.3707 -1.2046,-12.014933 -4.37695,-16.144531 -3.35128,-4.363396 -8.29313,-6.275391 -13.94727,-6.275391 -6.08097,0 -11.51364,1.346779 -15.45117,4.853516 -4.03817,3.596598 -5.68945,8.733191 -5.68945,14.496093 v 4.015625 C 100.10524,59.326378 96.6698,54.021299 91.125,49.919922 l -0.0098,-0.0078 c -0.0063,-0.005 -0.01033,-0.01056 -0.01953,-0.01758 l -0.0059,-0.0039 -0.0039,-0.0039 c 1.68e-4,1.24e-4 -0.02242,-0.01551 -0.0332,-0.02344 l -0.167968,-0.123047 -0.355469,-0.261718 -0.01367,0.01367 C 83.716769,44.541661 74.967392,42.283203 64.683594,42.283203 Z m 0,9.511719 c 9.211793,0 15.928729,2.060019 20.658203,5.673828 l 0.0059,0.0039 0.03711,0.03125 0.03516,0.02344 c 0.0032,0.0023 0.0066,0.0035 0.0098,0.0059 l 0.0098,0.0078 c 2.319683,1.709498 3.991938,3.611728 5.095703,5.755859 1.106935,2.150287 1.648438,4.554316 1.648438,7.294922 v 31.744143 c 0,0.16156 -0.0169,0.22066 -0.03516,0.26367 -0.01826,0.043 -0.05009,0.0993 -0.167968,0.21289 -0.302037,0.29035 -1.149994,0.85031 -2.931641,1.33008 l -0.05078,0.0137 -0.01953,0.008 -0.01172,0.002 c -0.0014,3.9e-4 -0.0025,0.002 -0.0039,0.002 -1.976762,0.56361 -3.921217,0.83594 -5.847657,0.83594 -0.659293,0 -1.319375,-0.0227 -1.980468,-0.0684 0.225178,-2.90116 0.33789,-5.90189 0.33789,-9.000003 V 74.175781 c 0,-4.110355 -1.373756,-7.814188 -4.386719,-10.521484 l 0.002,-0.002 -0.04687,-0.04102 -0.0059,-0.0039 c -0.170811,-0.151878 -0.348017,-0.299889 -0.529297,-0.445313 l -0.04492,-0.03906 c -0.02541,-0.02151 -0.05455,-0.04638 -0.07617,-0.06445 l -0.0098,-0.0078 -0.0098,-0.0078 c -0.01827,-0.01426 -0.04088,-0.03149 -0.05859,-0.04492 l -0.0098,-0.0078 c -0.0037,-0.0028 -0.0075,-0.0061 -0.0098,-0.0078 -3.231105,-2.656359 -7.237058,-3.802735 -11.603515,-3.802735 -4.418018,0 -8.46789,1.171536 -11.714844,3.892579 0,0 -0.002,0 -0.002,0 0,0 -0.002,0.002 -0.002,0.002 -0.0025,0.0022 -0.0086,0.0081 -0.01758,0.01563 -0.0038,0.0032 -0.0079,0.0065 -0.01172,0.0098 -0.0026,0.0021 -0.003,0.0015 -0.0059,0.0039 -0.01912,0.01612 -0.03335,0.02772 -0.02344,0.01953 -3.33662,2.796337 -4.753906,6.735989 -4.753906,11.052734 v 29.953129 c 0,6.71824 2.179981,12.47034 7.294922,16.03125 l -0.02344,0.0234 0.851563,0.52149 c -0.0077,-0.005 0.01343,0.009 0.0332,0.0215 0.0063,0.004 0.0092,0.006 0.01563,0.01 l 27.039062,17.34765 0.03125,0.0195 0.02539,0.0156 c 0.003,0.002 0.0048,0.002 0.0078,0.004 l 0.002,0.002 0.0078,0.004 c 3.084885,1.92347 5.378364,4.30171 6.919922,7.24414 1.544721,2.94846 2.337891,6.48065 2.33789,10.72265 v 35.32813 c 0,3.65306 -0.621432,6.77099 -1.822265,9.44531 -1.200833,2.67432 -2.981571,4.91417 -5.351563,6.81055 -4.920426,3.93549 -11.69879,6.125 -20.83789,6.125 -9.030201,0 -15.805665,-1.97011 -20.75,-5.48828 -2.429008,-1.81129 -4.170376,-3.79308 -5.3125,-5.98633 -1.143152,-2.19523 -1.69336,-4.61049 -1.69336,-7.32227 v -31.74414 c 0,-0.1604 0.01662,-0.2203 0.03516,-0.26367 0.01853,-0.0434 0.05132,-0.0989 0.169921,-0.21289 0.30247,-0.29077 1.144986,-0.8483 2.923829,-1.32813 h -0.0059 l 0.01367,-0.002 0.02344,-0.006 0.04102,-0.0117 0.0059,-0.002 c 1.982697,-0.56679 3.930203,-0.8418 5.861328,-0.8418 0.659275,0 1.319352,0.0227 1.980468,0.0684 -0.224914,2.90142 -0.335937,5.90213 -0.335937,9 v 21.75977 c 0,4.51573 1.849857,8.37131 5.402344,11.16211 3.368136,2.6472 7.44103,3.83398 11.896484,3.83398 4.391133,0 8.417735,-1.15747 11.658203,-3.8457 0.0035,-0.003 0.06477,-0.0504 0.103516,-0.082 l 0.0039,-0.004 c 3.472442,-2.78362 5.279297,-6.60181 5.279297,-11.06445 v -28.92774 c 0,-7.53057 -2.592155,-13.80122 -8.302734,-17.80273 l 0.0098,-0.01 -0.826172,-0.53906 c 1.3e-4,1e-4 -0.0029,-0.001 -0.0039,-0.002 -0.001,-6.5e-4 -0.0021,-7.9e-4 -0.0039,-0.002 -8.93e-4,-5.6e-4 -8.48e-4,7e-4 -0.002,0 v -0.002 c -0.0016,-9.9e-4 -0.004,-0.003 -0.0059,-0.004 l -27.054687,-17.60938 -0.02148,-0.0137 -0.03125,-0.0234 -0.01563,-0.01 c -2.684671,-1.70237 -4.733131,-3.92067 -6.134765,-6.81836 -1.401634,-2.89769 -2.152344,-6.4891 -2.152344,-10.92383 V 74.175781 c 0,-3.676143 0.610741,-6.810605 1.78125,-9.492187 1.170509,-2.681582 2.899998,-4.917668 5.191406,-6.804688 4.739468,-3.903113 11.317534,-6.083984 20.271485,-6.083984 z m 57.716796,0 c 1.71275,0 3.02118,0.26588 4.04102,0.710937 1.01983,0.445058 1.76251,1.065894 2.36328,1.847657 1.33941,1.743656 2.4082,4.960077 2.4082,10.349609 V 191.42383 c 0,4.22392 1.34707,8.04923 4.35938,10.94726 l -0.0312,0.041 0.42773,0.32812 0.01,0.01 0.14257,0.10742 0.0195,0.0156 c 0,0 0.002,0.002 0.002,0.002 0.0645,0.0496 0.13027,0.098 0.19531,0.14648 l 0.40625,0.3086 0.006,-0.01 h 0.002 c 3.09476,2.15725 6.76842,3.09961 10.73633,3.09961 4.12906,0 7.95585,-0.93689 11.1543,-3.15039 l 0.0996,-0.0684 0.0937,-0.0723 c 3.43671,-2.64322 5.18359,-6.36385 5.18359,-10.68164 V 70.591797 c 0,-6.241517 -0.32243,-11.8426 -0.99609,-16.767578 3.86193,-0.317405 7.7641,-0.481723 11.70898,-0.492188 V 191.42383 c 0,4.34009 1.42185,8.25868 4.61133,11.18359 l 0.1543,0.14258 0.16211,0.12305 c 3.21752,2.47542 7.11502,3.54687 11.34765,3.54687 4.32481,0 8.33815,-1.03317 11.49414,-3.66211 l 0.01,-0.01 0.0156,-0.0117 0.008,-0.006 0.004,-0.004 c 0.009,-0.007 0.0149,-0.0162 0.0234,-0.0234 3.38525,-2.88374 4.97656,-6.83289 4.97656,-11.27929 V 70.591797 c 0,-6.241517 -0.32243,-11.8426 -0.99609,-16.767578 3.86193,-0.317405 7.7641,-0.481723 11.70898,-0.492188 V 191.42383 c 0,3.67633 -0.60934,6.8106 -1.77929,9.49219 -1.16996,2.68158 -2.8997,4.91784 -5.19141,6.80468 -4.71008,3.87918 -11.44655,6.08399 -20.78516,6.08399 -9.20814,0 -15.09545,-2.21945 -18.65234,-5.77539 l -3.36328,-3.36524 -3.36328,3.36524 c -3.55715,3.55619 -9.4442,5.77539 -18.65235,5.77539 -9.00258,0 -15.38092,-2.04041 -19.72851,-5.54492 -0.003,-0.002 -0.002,-0.002 -0.004,-0.004 -0.002,-0.001 -0.004,-0.003 -0.006,-0.004 -1.9934,-1.67435 -3.53706,-3.74488 -4.5957,-6.33593 C 121.07052,199.3208 120.5,196.19768 120.5,192.44727 V 71.359375 c 0,-3.913189 -0.78382,-8.034552 -3.67773,-10.773438 l -0.0156,-0.01758 c -1.50976,-1.602454 -3.43438,-2.556008 -5.50391,-3.091797 0.44927,-1.489281 1.1413,-2.497539 1.97071,-3.236328 1.52246,-1.355612 4.28833,-2.445312 9.12695,-2.445312 z"
     fill="#ffe81f"
     id="path1"
     style="fill:#1a1a1a;stroke-width:0.1;stroke-miterlimit:4;stroke-dasharray:none"
     inkscape:path-effect="#path-effect2"
     inkscape:original-d="m 41.3881,54.208 2.5428,3.0877 v 0 z m 46.848,-0.512 -2.4298,3.1774 0.0299,0.0229 0.0303,0.0223 z m 2.048,55.04 -1.0399,-3.862 -0.0296,0.007 -0.0294,0.009 z m -14.336,0.256 -3.9692,-0.496 -0.4548,3.639 3.5858,0.768 z m -2.56,-42.24 -2.5838,3.0535 0.0711,0.0602 0.0738,0.0568 z m -17.408,0 2.5607,3.0729 0.0115,-0.0096 0.0115,-0.0098 z m 2.816,49.92 2.1598,-3.367 -0.0397,-0.025 -0.0404,-0.025 z m 27.136,17.408 -2.1599,3.367 0.0232,0.015 0.0234,0.014 z m 2.56,77.312 2.4987,3.123 z m -47.36,0.768 -2.3853,3.211 0.0299,0.022 0.0304,0.022 z m -2.304,-55.296 1.0398,3.862 0.0296,-0.007 0.0294,-0.009 z m 14.336,-0.256 3.9691,0.496 0.4548,-3.639 -3.5858,-0.768 z m 2.816,42.24 2.4712,-3.145 v 0 z m 17.664,0 -2.4713,-3.145 -0.0571,0.045 -0.0554,0.046 z m -3.328,-50.688 -2.1822,3.352 0.0253,0.017 0.0256,0.016 z m -27.136,-17.664 2.1821,-3.352 -0.0199,-0.013 -0.0201,-0.013 z m -6.496,-21.76 v -34.56 h -8 v 34.56 z m 0,-34.56 c 0,-7.5198 2.4984,-12.9699 7.2468,-16.8803 L 38.8452,51.1203 C 31.9882,56.7672 28.6841,64.6291 28.6841,74.176 Z M 43.9309,57.2957 C 48.8293,53.2617 55.6068,51.04 64.6841,51.04 v -8 c -10.3788,0 -19.1319,2.5569 -25.8389,8.0803 z M 64.6841,51.04 c 9.329,0 16.228,2.0908 21.1222,5.8334 l 4.8596,-6.3548 C 83.9547,45.3865 75.1524,43.04 64.6841,43.04 Z m 21.1824,5.8786 c 4.813,3.539 7.0736,7.9918 7.0736,13.6734 h 7.9999 c 0,-8.3131 -3.5421,-15.1243 -10.3344,-20.1186 z m 7.0736,13.6734 v 31.744 H 100.94 V 70.592 Z m 0,31.744 c 0,0.446 -0.1097,0.706 -0.4365,1.021 -0.4421,0.425 -1.3952,1.015 -3.2594,1.517 l 2.0798,7.724 c 2.573,-0.692 4.9479,-1.766 6.7245,-3.475 1.8919,-1.819 2.8915,-4.161 2.8915,-6.787 z m -3.7549,2.554 c -2.0464,0.585 -4.0661,0.87 -6.0691,0.87 v 8 c 2.7756,0 5.5345,-0.397 8.2668,-1.178 z m -6.0691,0.87 c -2.1013,0 -4.2098,-0.225 -6.3299,-0.679 l -1.6763,7.822 c 2.6586,0.57 5.3288,0.857 8.0062,0.857 z m -3.1989,3.728 c 0.5347,-4.278 0.7989,-8.797 0.7989,-13.552 h -8 c 0,4.461 -0.2479,8.646 -0.7372,12.56 z m 0.7989,-13.552 v -21.76 h -8 v 21.76 z m 0,-21.76 c 0,-4.2619 -1.5222,-8.0045 -4.8892,-10.5945 l -4.8777,6.341 c 1.0704,0.8233 1.7669,2.0301 1.7669,4.2535 z M 75.9718,63.6985 C 72.8739,61.0771 68.9857,59.936 64.6841,59.936 v 8 c 2.8663,0 4.7808,0.7362 6.1202,1.8695 z M 64.6841,59.936 c -4.3017,0 -8.1899,1.1411 -11.2878,3.7625 l 5.1675,6.107 c 1.3394,-1.1333 3.2539,-1.8695 6.1203,-1.8695 z m -11.2648,3.7431 c -3.1565,2.6305 -4.5112,6.3492 -4.5112,10.4969 h 8 c 0,-2.3377 0.6932,-3.5682 1.6327,-4.3511 z M 48.9081,74.176 v 29.952 h 8 V 74.176 Z m 0,29.952 c 0,6.893 2.3334,12.628 7.8082,15.961 l 4.1595,-6.834 c -2.3758,-1.446 -3.9677,-4.073 -3.9677,-9.127 z m 7.7281,15.911 27.136,17.408 4.3197,-6.734 -27.136,-17.408 z m 27.1826,17.437 c 6.38,3.97 9.6333,9.947 9.6333,18.62 h 7.9999 c 0,-11.125 -4.4267,-19.825 -13.4067,-25.412 z m 9.6333,18.62 v 35.328 h 7.9999 v -35.328 z m 0,35.328 c 0,7.478 -2.5523,12.919 -7.4588,16.845 l 4.9975,6.246 c 7.0402,-5.632 10.4612,-13.502 10.4612,-23.091 z m -7.4588,16.845 c -5.0786,4.062 -12.0488,6.291 -21.3092,6.291 v 8 c 10.5368,0 19.4386,-2.55 26.3067,-8.045 z m -21.3092,6.291 c -9.1627,0 -16.122,-2.008 -21.2271,-5.655 l -4.6499,6.51 c 6.8415,4.887 15.5836,7.145 25.877,7.145 z m -21.1667,-5.611 c -5.0327,-3.739 -7.3453,-8.3 -7.3453,-13.941 h -8 c 0,8.354 3.6607,15.227 10.5747,20.363 z m -7.3453,-13.941 v -31.744 h -8 v 31.744 z m 0,-31.744 c 0,-0.446 0.1097,-0.707 0.4364,-1.021 0.4421,-0.425 1.3952,-1.015 3.2594,-1.517 l -2.0797,-7.724 c -2.5731,0.692 -4.948,1.766 -6.7246,3.475 -1.8919,1.819 -2.8915,4.161 -2.8915,6.787 z m 3.7548,-2.554 c 2.0464,-0.585 4.0661,-0.87 6.0692,-0.87 v -8 c -2.7757,0 -5.5346,0.397 -8.2669,1.178 z m 6.0692,-0.87 c 2.1012,0 4.2097,0.225 6.3298,0.679 l 1.6763,-7.822 c -2.6586,-0.57 -5.3288,-0.857 -8.0061,-0.857 z m 3.1988,-3.728 c -0.5347,4.278 -0.7988,8.797 -0.7988,13.552 h 8 c 0,-4.461 0.2478,-8.646 0.7371,-12.56 z m -0.7988,13.552 v 21.76 h 8 v -21.76 z m 0,21.76 c 0,4.284 1.7458,7.924 5.1127,10.569 l 4.9425,-6.29 c -1.4118,-1.11 -2.0552,-2.419 -2.0552,-4.279 z m 5.1127,10.569 c 3.2152,2.527 7.1183,3.671 11.4313,3.671 v -8 c -2.8551,0 -4.9253,-0.733 -6.4888,-1.961 z m 11.4313,3.671 c 4.3016,0 8.1898,-1.141 11.2877,-3.762 l -5.1675,-6.108 c -1.3394,1.134 -3.2539,1.87 -6.1202,1.87 z m 11.1752,-3.671 c 3.3669,-2.645 5.1128,-6.285 5.1128,-10.569 h -8 c 0,1.86 -0.6435,3.169 -2.0553,4.279 z m 5.1128,-10.569 v -28.928 h -8 v 28.928 z m 0,-28.928 c 0,-7.678 -2.7396,-13.917 -8.7808,-17.721 l -4.2625,6.77 c 3.1748,1.999 5.0433,5.317 5.0433,10.951 z m -8.7299,-17.688 -27.136,-17.664 -4.3643,6.704 27.136,17.664 z m -27.176,-17.69 c -5.5795,-3.538 -8.6381,-9.342 -8.6381,-18.382 h -8 c 0,11.099 3.9386,19.802 12.3538,25.138 z M 200.992,49.6 l -0.467,-3.9726 -4.356,0.5124 0.91,4.2902 z m 13.312,161.792 2.543,3.088 v 0 z m -45.824,0 2.828,-2.828 -2.828,-2.829 -2.828,2.829 z m -44.8,0.512 -2.57,3.065 0.023,0.02 0.025,0.019 z m -10.24,-147.968 -2.99,2.6574 0.157,0.1759 0.176,0.1563 z m -7.424,-2.304 h -4 v 4 h 4 z m 33.024,137.472 -2.703,2.949 0.127,0.116 0.137,0.105 z m 16.896,0.256 2.277,3.289 0.082,-0.057 0.08,-0.062 z m 1.536,-149.76 -0.467,-3.9726 -4.356,0.5124 0.91,4.2902 z m 25.088,149.504 -2.703,2.949 0.127,0.116 0.137,0.105 z m 16.896,0 2.561,3.073 0.011,-0.01 0.012,-0.009 z m 7.328,-128.512 c 0,-8.5283 -0.607,-15.825 -1.879,-21.822 l -7.826,1.66 c 1.117,5.267 1.705,11.9649 1.705,20.162 z m -5.325,-17.0194 c 5.645,-0.664 11.376,-0.9966 17.197,-0.9966 v -8 c -6.126,0 -12.17,0.3501 -18.131,1.0514 z m 17.197,-0.9966 c 0.444,0 0.684,0.0504 0.775,0.0775 0.079,0.0231 -0.012,0.01 -0.157,-0.1182 -0.07,-0.0614 -0.134,-0.1334 -0.186,-0.2101 -0.051,-0.0757 -0.08,-0.1388 -0.094,-0.1756 -0.026,-0.068 0.014,-0.0056 0.014,0.2664 h 8 c 0,-2.0355 -0.6,-4.2543 -2.441,-5.8794 -1.747,-1.5407 -3.958,-1.9606 -5.911,-1.9606 z m 0.352,-0.16 v 139.008 h 8 V 52.416 Z m 0,139.008 c 0,7.52 -2.498,12.97 -7.247,16.88 l 5.086,6.176 c 6.857,-5.647 10.161,-13.509 10.161,-23.056 z m -7.247,16.88 c -4.875,4.015 -11.807,6.256 -21.265,6.256 v 8 c 10.681,0 19.621,-2.538 26.351,-8.08 z m -21.265,6.256 c -9.33,0 -15.447,-2.256 -19.188,-5.996 l -5.656,5.656 c 5.816,5.817 14.376,8.34 24.844,8.34 z m -24.844,-5.996 c -3.741,3.74 -9.858,5.996 -19.188,5.996 v 8 c 10.468,0 19.028,-2.523 24.844,-8.34 z m -19.188,5.996 c -9.157,0 -15.743,-2.089 -20.262,-5.76 l -5.044,6.208 c 6.404,5.204 15.007,7.552 25.306,7.552 z m -20.213,-5.721 c -4.175,-3.501 -6.507,-8.736 -6.507,-16.391 h -8 c 0,9.412 2.959,17.147 9.366,22.521 z m -6.507,-16.391 V 71.36 h -8 v 121.088 z m 0,-121.088 c 0,-3.9245 -0.8,-7.8832 -3.646,-10.4136 l -5.315,5.9792 c 0.225,0.2003 0.961,1.1909 0.961,4.4344 z M 116.43,61.2785 c -2.531,-2.8467 -6.489,-3.6465 -10.414,-3.6465 v 8 c 3.244,0 4.234,0.7362 4.434,0.9614 z m -6.414,0.3535 c 0,-4.1197 1.135,-6.513 2.756,-7.9569 1.71,-1.5226 4.676,-2.6351 9.628,-2.6351 v -8 c -5.971,0 -11.196,1.3194 -14.948,4.6609 -3.84,3.4201 -5.436,8.3228 -5.436,13.9311 z M 122.4,51.04 c 3.582,0 5.666,1.1115 7.004,2.8526 1.491,1.941 2.564,5.3233 2.564,10.8114 h 8 c 0,-6.2879 -1.188,-11.7377 -4.22,-15.6846 C 132.563,44.8725 127.863,43.04 122.4,43.04 Z m 9.568,13.664 v 126.72 h 8 V 64.704 Z m 0,126.72 c 0,4.159 1.355,7.865 4.369,10.629 l 5.406,-5.898 c -1.081,-0.991 -1.775,-2.404 -1.775,-4.731 z m 4.633,10.85 c 3.061,2.355 6.79,3.39 10.887,3.39 v -8 c -2.73,0 -4.632,-0.671 -6.009,-1.73 z m 10.887,3.39 c 4.011,0 7.679,-0.907 10.725,-3.015 l -4.554,-6.578 c -1.392,0.964 -3.355,1.593 -6.171,1.593 z m 10.887,-3.134 c 3.244,-2.495 4.889,-5.992 4.889,-10.082 h -8 c 0,1.712 -0.574,2.824 -1.767,3.742 z m 4.889,-10.082 V 70.592 h -8 v 121.856 z m 0,-121.856 c 0,-8.5283 -0.607,-15.825 -1.879,-21.822 l -7.826,1.66 c 1.117,5.267 1.705,11.9649 1.705,20.162 z m -5.325,-17.0194 c 5.645,-0.664 11.376,-0.9966 17.197,-0.9966 v -8 c -6.126,0 -12.17,0.3501 -18.131,1.0514 z m 17.197,-0.9966 c 0.444,0 0.684,0.0504 0.775,0.0775 0.079,0.0231 -0.012,0.01 -0.157,-0.1182 -0.07,-0.0614 -0.134,-0.1334 -0.186,-0.2101 -0.051,-0.0757 -0.08,-0.1388 -0.094,-0.1756 -0.026,-0.068 0.014,-0.0056 0.014,0.2664 h 8 c 0,-2.0355 -0.6,-4.2543 -2.441,-5.8794 -1.747,-1.5407 -3.958,-1.9606 -5.911,-1.9606 z m 0.352,-0.16 v 139.008 h 8 V 52.416 Z m 0,139.008 c 0,4.159 1.355,7.865 4.369,10.629 l 5.406,-5.898 c -1.081,-0.991 -1.775,-2.404 -1.775,-4.731 z m 4.633,10.85 c 3.061,2.355 6.79,3.39 10.887,3.39 v -8 c -2.73,0 -4.632,-0.671 -6.009,-1.73 z m 10.887,3.39 c 4.196,0 8.027,-1.003 11.009,-3.487 l -5.122,-6.146 c -1.114,0.929 -2.915,1.633 -5.887,1.633 z m 11.032,-3.506 c 3.227,-2.731 4.744,-6.468 4.744,-10.734 h -8 c 0,2.219 -0.702,3.603 -1.912,4.626 z m 4.744,-10.734 V 70.592 h -8 v 120.832 z" />
  <path
     d="M32.6841 108.736V74.176C32.6841 65.6427 35.5854 58.9867 41.3881 54.208C47.1907 49.4293 54.9561 47.04 64.6841 47.04C74.5827 47.04 82.4334 49.2587 88.2361 53.696C94.0387 57.9627 96.9401 63.5947 96.9401 70.592V102.336C96.9401 105.408 94.7214 107.541 90.2841 108.736C87.8947 109.419 85.5054 109.76 83.1161 109.76C80.7267 109.76 78.3374 109.504 75.9481 108.992C76.4601 104.896 76.7161 100.544 76.7161 95.936V74.176C76.7161 70.9333 75.6067 68.4587 73.3881 66.752C71.1694 64.8747 68.2681 63.936 64.6841 63.936C61.1001 63.936 58.1987 64.8747 55.9801 66.752C53.9321 68.4587 52.9081 70.9333 52.9081 74.176V104.128C52.9081 110.101 54.8707 114.283 58.7961 116.672L85.9321 134.08C93.6121 138.859 97.4521 146.197 97.4521 156.096V191.424C97.4521 199.957 94.4654 206.613 88.4921 211.392C82.5187 216.171 74.5827 218.56 64.6841 218.56C54.9561 218.56 47.1054 216.427 41.1321 212.16C35.1587 207.723 32.1721 202.005 32.1721 195.008V163.264C32.1721 160.192 34.3907 158.059 38.8281 156.864C41.2174 156.181 43.6067 155.84 45.9961 155.84C48.3854 155.84 50.7747 156.096 53.1641 156.608C52.6521 160.704 52.3961 165.056 52.3961 169.664V191.424C52.3961 194.496 53.5907 196.971 55.9801 198.848C58.3694 200.725 61.3561 201.664 64.9401 201.664C68.5241 201.664 71.4254 200.725 73.6441 198.848C76.0334 196.971 77.2281 194.496 77.2281 191.424V162.496C77.2281 155.84 74.9241 151.061 70.3161 148.16L43.1801 130.496C36.1827 126.059 32.6841 118.805 32.6841 108.736ZM202.784 70.592C202.784 62.2293 202.187 55.232 200.992 49.6C206.795 48.9173 212.683 48.576 218.656 48.576C221.557 48.576 223.008 49.856 223.008 52.416V191.424C223.008 199.957 220.107 206.613 214.304 211.392C208.501 216.171 200.565 218.56 190.496 218.56C180.597 218.56 173.259 216.171 168.48 211.392C163.701 216.171 156.363 218.56 146.464 218.56C136.736 218.56 129.141 216.341 123.68 211.904C118.389 207.467 115.744 200.981 115.744 192.448V71.36C115.744 67.776 114.976 65.3013 113.44 63.936C112.075 62.4 109.6 61.632 106.016 61.632C106.016 51.904 111.477 47.04 122.4 47.04C131.445 47.04 135.968 52.928 135.968 64.704V191.424C135.968 194.667 136.992 197.227 139.04 199.104C141.259 200.811 144.075 201.664 147.488 201.664C150.901 201.664 153.717 200.896 155.936 199.36C158.155 197.653 159.264 195.349 159.264 192.448V70.592C159.264 62.2293 158.667 55.232 157.472 49.6C163.275 48.9173 169.163 48.576 175.136 48.576C178.037 48.576 179.488 49.856 179.488 52.416V191.424C179.488 194.667 180.512 197.227 182.56 199.104C184.779 200.811 187.595 201.664 191.008 201.664C194.592 201.664 197.408 200.811 199.456 199.104C201.675 197.227 202.784 194.667 202.784 191.424V70.592Z"
     fill="#FFE81F"
     id="path4"
     style="stroke-width:0;stroke-miterlimit:4;stroke-dasharray:none;stroke:#000000;stroke-opacity:1" />
  <path
     d="m 41.3881,54.208 2.5428,3.0877 v 0 z m 46.848,-0.512 -2.4298,3.1774 0.0299,0.0229 0.0303,0.0223 z m 2.048,55.04 -1.0399,-3.862 -0.0296,0.007 -0.0294,0.009 z m -14.336,0.256 -3.9692,-0.496 -0.4548,3.639 3.5858,0.768 z m -2.56,-42.24 -2.5838,3.0535 0.0711,0.0602 0.0738,0.0568 z m -17.408,0 2.5607,3.0729 0.0115,-0.0096 0.0115,-0.0098 z m 2.816,49.92 2.1598,-3.367 -0.0397,-0.025 -0.0404,-0.025 z m 27.136,17.408 -2.1599,3.367 0.0232,0.015 0.0234,0.014 z m 2.56,77.312 2.4987,3.123 z m -47.36,0.768 -2.3853,3.211 0.0299,0.022 0.0304,0.022 z m -2.304,-55.296 1.0398,3.862 0.0296,-0.007 0.0294,-0.009 z m 14.336,-0.256 3.9691,0.496 0.4548,-3.639 -3.5858,-0.768 z m 2.816,42.24 2.4712,-3.145 v 0 z m 17.664,0 -2.4713,-3.145 -0.0571,0.045 -0.0554,0.046 z m -3.328,-50.688 -2.1822,3.352 0.0253,0.017 0.0256,0.016 z m -27.136,-17.664 2.1821,-3.352 -0.0199,-0.013 -0.0201,-0.013 z m -6.496,-21.76 v -34.56 h -8 v 34.56 z m 0,-34.56 c 0,-7.5198 2.4984,-12.9699 7.2468,-16.8803 L 38.8452,51.1203 C 31.9882,56.7672 28.6841,64.6291 28.6841,74.176 Z M 43.9309,57.2957 C 48.8293,53.2617 55.6068,51.04 64.6841,51.04 v -8 c -10.3788,0 -19.1319,2.5569 -25.8389,8.0803 z M 64.6841,51.04 c 9.329,0 16.228,2.0908 21.1222,5.8334 l 4.8596,-6.3548 C 83.9547,45.3865 75.1524,43.04 64.6841,43.04 Z m 21.1824,5.8786 c 4.813,3.539 7.0736,7.9918 7.0736,13.6734 h 7.9999 c 0,-8.3131 -3.5421,-15.1243 -10.3344,-20.1186 z m 7.0736,13.6734 v 31.744 H 100.94 V 70.592 Z m 0,31.744 c 0,0.446 -0.1097,0.706 -0.4365,1.021 -0.4421,0.425 -1.3952,1.015 -3.2594,1.517 l 2.0798,7.724 c 2.573,-0.692 4.9479,-1.766 6.7245,-3.475 1.8919,-1.819 2.8915,-4.161 2.8915,-6.787 z m -3.7549,2.554 c -2.0464,0.585 -4.0661,0.87 -6.0691,0.87 v 8 c 2.7756,0 5.5345,-0.397 8.2668,-1.178 z m -6.0691,0.87 c -2.1013,0 -4.2098,-0.225 -6.3299,-0.679 l -1.6763,7.822 c 2.6586,0.57 5.3288,0.857 8.0062,0.857 z m -3.1989,3.728 c 0.5347,-4.278 0.7989,-8.797 0.7989,-13.552 h -8 c 0,4.461 -0.2479,8.646 -0.7372,12.56 z m 0.7989,-13.552 v -21.76 h -8 v 21.76 z m 0,-21.76 c 0,-4.2619 -1.5222,-8.0045 -4.8892,-10.5945 l -4.8777,6.341 c 1.0704,0.8233 1.7669,2.0301 1.7669,4.2535 z M 75.9718,63.6985 C 72.8739,61.0771 68.9857,59.936 64.6841,59.936 v 8 c 2.8663,0 4.7808,0.7362 6.1202,1.8695 z M 64.6841,59.936 c -4.3017,0 -8.1899,1.1411 -11.2878,3.7625 l 5.1675,6.107 c 1.3394,-1.1333 3.2539,-1.8695 6.1203,-1.8695 z m -11.2648,3.7431 c -3.1565,2.6305 -4.5112,6.3492 -4.5112,10.4969 h 8 c 0,-2.3377 0.6932,-3.5682 1.6327,-4.3511 z M 48.9081,74.176 v 29.952 h 8 V 74.176 Z m 0,29.952 c 0,6.893 2.3334,12.628 7.8082,15.961 l 4.1595,-6.834 c -2.3758,-1.446 -3.9677,-4.073 -3.9677,-9.127 z m 7.7281,15.911 27.136,17.408 4.3197,-6.734 -27.136,-17.408 z m 27.1826,17.437 c 6.38,3.97 9.6333,9.947 9.6333,18.62 h 7.9999 c 0,-11.125 -4.4267,-19.825 -13.4067,-25.412 z m 9.6333,18.62 v 35.328 h 7.9999 v -35.328 z m 0,35.328 c 0,7.478 -2.5523,12.919 -7.4588,16.845 l 4.9975,6.246 c 7.0402,-5.632 10.4612,-13.502 10.4612,-23.091 z m -7.4588,16.845 c -5.0786,4.062 -12.0488,6.291 -21.3092,6.291 v 8 c 10.5368,0 19.4386,-2.55 26.3067,-8.045 z m -21.3092,6.291 c -9.1627,0 -16.122,-2.008 -21.2271,-5.655 l -4.6499,6.51 c 6.8415,4.887 15.5836,7.145 25.877,7.145 z m -21.1667,-5.611 c -5.0327,-3.739 -7.3453,-8.3 -7.3453,-13.941 h -8 c 0,8.354 3.6607,15.227 10.5747,20.363 z m -7.3453,-13.941 v -31.744 h -8 v 31.744 z m 0,-31.744 c 0,-0.446 0.1097,-0.707 0.4364,-1.021 0.4421,-0.425 1.3952,-1.015 3.2594,-1.517 l -2.0797,-7.724 c -2.5731,0.692 -4.948,1.766 -6.7246,3.475 -1.8919,1.819 -2.8915,4.161 -2.8915,6.787 z m 3.7548,-2.554 c 2.0464,-0.585 4.0661,-0.87 6.0692,-0.87 v -8 c -2.7757,0 -5.5346,0.397 -8.2669,1.178 z m 6.0692,-0.87 c 2.1012,0 4.2097,0.225 6.3298,0.679 l 1.6763,-7.822 c -2.6586,-0.57 -5.3288,-0.857 -8.0061,-0.857 z m 3.1988,-3.728 c -0.5347,4.278 -0.7988,8.797 -0.7988,13.552 h 8 c 0,-4.461 0.2478,-8.646 0.7371,-12.56 z m -0.7988,13.552 v 21.76 h 8 v -21.76 z m 0,21.76 c 0,4.284 1.7458,7.924 5.1127,10.569 l 4.9425,-6.29 c -1.4118,-1.11 -2.0552,-2.419 -2.0552,-4.279 z m 5.1127,10.569 c 3.2152,2.527 7.1183,3.671 11.4313,3.671 v -8 c -2.8551,0 -4.9253,-0.733 -6.4888,-1.961 z m 11.4313,3.671 c 4.3016,0 8.1898,-1.141 11.2877,-3.762 l -5.1675,-6.108 c -1.3394,1.134 -3.2539,1.87 -6.1202,1.87 z m 11.1752,-3.671 c 3.3669,-2.645 5.1128,-6.285 5.1128,-10.569 h -8 c 0,1.86 -0.6435,3.169 -2.0553,4.279 z m 5.1128,-10.569 v -28.928 h -8 v 28.928 z m 0,-28.928 c 0,-7.678 -2.7396,-13.917 -8.7808,-17.721 l -4.2625,6.77 c 3.1748,1.999 5.0433,5.317 5.0433,10.951 z m -8.7299,-17.688 -27.136,-17.664 -4.3643,6.704 27.136,17.664 z m -27.176,-17.69 c -5.5795,-3.538 -8.6381,-9.342 -8.6381,-18.382 h -8 c 0,11.099 3.9386,19.802 12.3538,25.138 z M 200.992,49.6 l -0.467,-3.9726 -4.356,0.5124 0.91,4.2902 z m 13.312,161.792 2.543,3.088 v 0 z m -45.824,0 2.828,-2.828 -2.828,-2.829 -2.828,2.829 z m -44.8,0.512 -2.57,3.065 0.023,0.02 0.025,0.019 z m -10.24,-147.968 -2.99,2.6574 0.157,0.1759 0.176,0.1563 z m -7.424,-2.304 h -4 v 4 h 4 z m 33.024,137.472 -2.703,2.949 0.127,0.116 0.137,0.105 z m 16.896,0.256 2.277,3.289 0.082,-0.057 0.08,-0.062 z m 1.536,-149.76 -0.467,-3.9726 -4.356,0.5124 0.91,4.2902 z m 25.088,149.504 -2.703,2.949 0.127,0.116 0.137,0.105 z m 16.896,0 2.561,3.073 0.011,-0.01 0.012,-0.009 z m 7.328,-128.512 c 0,-8.5283 -0.607,-15.825 -1.879,-21.822 l -7.826,1.66 c 1.117,5.267 1.705,11.9649 1.705,20.162 z m -5.325,-17.0194 c 5.645,-0.664 11.376,-0.9966 17.197,-0.9966 v -8 c -6.126,0 -12.17,0.3501 -18.131,1.0514 z m 17.197,-0.9966 c 0.444,0 0.684,0.0504 0.775,0.0775 0.079,0.0231 -0.012,0.01 -0.157,-0.1182 -0.07,-0.0614 -0.134,-0.1334 -0.186,-0.2101 -0.051,-0.0757 -0.08,-0.1388 -0.094,-0.1756 -0.026,-0.068 0.014,-0.0056 0.014,0.2664 h 8 c 0,-2.0355 -0.6,-4.2543 -2.441,-5.8794 -1.747,-1.5407 -3.958,-1.9606 -5.911,-1.9606 z m 0.352,-0.16 v 139.008 h 8 V 52.416 Z m 0,139.008 c 0,7.52 -2.498,12.97 -7.247,16.88 l 5.086,6.176 c 6.857,-5.647 10.161,-13.509 10.161,-23.056 z m -7.247,16.88 c -4.875,4.015 -11.807,6.256 -21.265,6.256 v 8 c 10.681,0 19.621,-2.538 26.351,-8.08 z m -21.265,6.256 c -9.33,0 -15.447,-2.256 -19.188,-5.996 l -5.656,5.656 c 5.816,5.817 14.376,8.34 24.844,8.34 z m -24.844,-5.996 c -3.741,3.74 -9.858,5.996 -19.188,5.996 v 8 c 10.468,0 19.028,-2.523 24.844,-8.34 z m -19.188,5.996 c -9.157,0 -15.743,-2.089 -20.262,-5.76 l -5.044,6.208 c 6.404,5.204 15.007,7.552 25.306,7.552 z m -20.213,-5.721 c -4.175,-3.501 -6.507,-8.736 -6.507,-16.391 h -8 c 0,9.412 2.959,17.147 9.366,22.521 z m -6.507,-16.391 V 71.36 h -8 v 121.088 z m 0,-121.088 c 0,-3.9245 -0.8,-7.8832 -3.646,-10.4136 l -5.315,5.9792 c 0.225,0.2003 0.961,1.1909 0.961,4.4344 z M 116.43,61.2785 c -2.531,-2.8467 -6.489,-3.6465 -10.414,-3.6465 v 8 c 3.244,0 4.234,0.7362 4.434,0.9614 z m -6.414,0.3535 c 0,-4.1197 1.135,-6.513 2.756,-7.9569 1.71,-1.5226 4.676,-2.6351 9.628,-2.6351 v -8 c -5.971,0 -11.196,1.3194 -14.948,4.6609 -3.84,3.4201 -5.436,8.3228 -5.436,13.9311 z M 122.4,51.04 c 3.582,0 5.666,1.1115 7.004,2.8526 1.491,1.941 2.564,5.3233 2.564,10.8114 h 8 c 0,-6.2879 -1.188,-11.7377 -4.22,-15.6846 C 132.563,44.8725 127.863,43.04 122.4,43.04 Z m 9.568,13.664 v 126.72 h 8 V 64.704 Z m 0,126.72 c 0,4.159 1.355,7.865 4.369,10.629 l 5.406,-5.898 c -1.081,-0.991 -1.775,-2.404 -1.775,-4.731 z m 4.633,10.85 c 3.061,2.355 6.79,3.39 10.887,3.39 v -8 c -2.73,0 -4.632,-0.671 -6.009,-1.73 z m 10.887,3.39 c 4.011,0 7.679,-0.907 10.725,-3.015 l -4.554,-6.578 c -1.392,0.964 -3.355,1.593 -6.171,1.593 z m 10.887,-3.134 c 3.244,-2.495 4.889,-5.992 4.889,-10.082 h -8 c 0,1.712 -0.574,2.824 -1.767,3.742 z m 4.889,-10.082 V 70.592 h -8 v 121.856 z m 0,-121.856 c 0,-8.5283 -0.607,-15.825 -1.879,-21.822 l -7.826,1.66 c 1.117,5.267 1.705,11.9649 1.705,20.162 z m -5.325,-17.0194 c 5.645,-0.664 11.376,-0.9966 17.197,-0.9966 v -8 c -6.126,0 -12.17,0.3501 -18.131,1.0514 z m 17.197,-0.9966 c 0.444,0 0.684,0.0504 0.775,0.0775 0.079,0.0231 -0.012,0.01 -0.157,-0.1182 -0.07,-0.0614 -0.134,-0.1334 -0.186,-0.2101 -0.051,-0.0757 -0.08,-0.1388 -0.094,-0.1756 -0.026,-0.068 0.014,-0.0056 0.014,0.2664 h 8 c 0,-2.0355 -0.6,-4.2543 -2.441,-5.8794 -1.747,-1.5407 -3.958,-1.9606 -5.911,-1.9606 z m 0.352,-0.16 v 139.008 h 8 V 52.416 Z m 0,139.008 c 0,4.159 1.355,7.865 4.369,10.629 l 5.406,-5.898 c -1.081,-0.991 -1.775,-2.404 -1.775,-4.731 z m 4.633,10.85 c 3.061,2.355 6.79,3.39 10.887,3.39 v -8 c -2.73,0 -4.632,-0.671 -6.009,-1.73 z m 10.887,3.39 c 4.196,0 8.027,-1.003 11.009,-3.487 l -5.122,-6.146 c -1.114,0.929 -2.915,1.633 -5.887,1.633 z m 11.032,-3.506 c 3.227,-2.731 4.744,-6.468 4.744,-10.734 h -8 c 0,2.219 -0.702,3.603 -1.912,4.626 z m 4.744,-10.734 V 70.592 h -8 v 120.832 z"
     fill="#ffe81f"
     id="path6"
     style="stroke-width:0.1;stroke-miterlimit:4;stroke-dasharray:none" />
</svg>
